<mxfile host="app.diagrams.net" modified="2022-09-13T12:36:14.821Z" agent="5.0 (Windows NT 10.0; Win64; x64) AppleWebKit/537.36 (KHTML, like Gecko) Chrome/104.0.0.0 Safari/537.36" etag="03AHDLL15ESoOx02KFRC" version="19.0.2" type="github">
  <diagram id="yziPRCR5f-JbaZi1jgxe" name="Page-1">
    <mxGraphModel dx="1902" dy="1086" grid="1" gridSize="10" guides="1" tooltips="1" connect="1" arrows="1" fold="1" page="1" pageScale="1" pageWidth="827" pageHeight="1169" math="0" shadow="0">
      <root>
        <mxCell id="0" />
        <mxCell id="1" parent="0" />
        <mxCell id="h8FtxE-7rcOeHejVIQH1-11" value="" style="group" parent="1" vertex="1" connectable="0">
          <mxGeometry x="90" y="130" width="539.37" height="478" as="geometry" />
        </mxCell>
        <mxCell id="h8FtxE-7rcOeHejVIQH1-1" value="blaaah" style="whiteSpace=wrap;html=1;aspect=fixed;" parent="h8FtxE-7rcOeHejVIQH1-11" vertex="1">
          <mxGeometry x="283.44868469357476" y="291.548149610094" width="98.44947754156809" height="98.44947754156809" as="geometry" />
        </mxCell>
        <mxCell id="h8FtxE-7rcOeHejVIQH1-2" value="blöööh" style="whiteSpace=wrap;html=1;aspect=fixed;" parent="h8FtxE-7rcOeHejVIQH1-11" vertex="1">
          <mxGeometry y="43.73222244151408" width="98.44947754156809" height="98.44947754156809" as="geometry" />
        </mxCell>
        <mxCell id="h8FtxE-7rcOeHejVIQH1-6" style="edgeStyle=orthogonalEdgeStyle;rounded=0;orthogonalLoop=1;jettySize=auto;html=1;" parent="h8FtxE-7rcOeHejVIQH1-11" source="h8FtxE-7rcOeHejVIQH1-1" target="h8FtxE-7rcOeHejVIQH1-2" edge="1">
          <mxGeometry relative="1" as="geometry" />
        </mxCell>
        <mxCell id="h8FtxE-7rcOeHejVIQH1-7" style="edgeStyle=orthogonalEdgeStyle;rounded=0;orthogonalLoop=1;jettySize=auto;html=1;entryX=1;entryY=0.5;entryDx=0;entryDy=0;" parent="h8FtxE-7rcOeHejVIQH1-11" source="h8FtxE-7rcOeHejVIQH1-1" target="h8FtxE-7rcOeHejVIQH1-2" edge="1">
          <mxGeometry relative="1" as="geometry" />
        </mxCell>
        <mxCell id="h8FtxE-7rcOeHejVIQH1-3" value="blüüüüüh" style="whiteSpace=wrap;html=1;aspect=fixed;" parent="h8FtxE-7rcOeHejVIQH1-11" vertex="1">
          <mxGeometry x="440.9201761900052" width="98.44947754156809" height="98.44947754156809" as="geometry" />
        </mxCell>
        <mxCell id="h8FtxE-7rcOeHejVIQH1-5" style="edgeStyle=orthogonalEdgeStyle;rounded=0;orthogonalLoop=1;jettySize=auto;html=1;" parent="h8FtxE-7rcOeHejVIQH1-11" source="h8FtxE-7rcOeHejVIQH1-1" target="h8FtxE-7rcOeHejVIQH1-3" edge="1">
          <mxGeometry relative="1" as="geometry" />
        </mxCell>
        <mxCell id="h8FtxE-7rcOeHejVIQH1-10" style="edgeStyle=orthogonalEdgeStyle;rounded=0;orthogonalLoop=1;jettySize=auto;html=1;" parent="h8FtxE-7rcOeHejVIQH1-11" source="h8FtxE-7rcOeHejVIQH1-1" target="h8FtxE-7rcOeHejVIQH1-3" edge="1">
          <mxGeometry relative="1" as="geometry">
            <Array as="points">
              <mxPoint x="337.1748323166644" y="48.80262504342877" />
            </Array>
          </mxGeometry>
        </mxCell>
        <mxCell id="h8FtxE-7rcOeHejVIQH1-13" value="WTF" style="text;html=1;align=center;verticalAlign=middle;resizable=0;points=[];autosize=1;strokeColor=none;fillColor=none;" parent="h8FtxE-7rcOeHejVIQH1-11" vertex="1">
          <mxGeometry x="285" y="122.18" width="40" height="20" as="geometry" />
        </mxCell>
        <mxCell id="h8FtxE-7rcOeHejVIQH1-14" value="WTF" style="shape=image;html=1;verticalLabelPosition=bottom;verticalAlign=top;imageAspect=0;image=img/clipart/Gear_128x128.png" parent="h8FtxE-7rcOeHejVIQH1-11" vertex="1">
          <mxGeometry x="90" y="204" width="50" height="60" as="geometry" />
        </mxCell>
        <mxCell id="h8FtxE-7rcOeHejVIQH1-15" value="Schmutz" style="shape=image;html=1;verticalAlign=top;verticalLabelPosition=bottom;labelBackgroundColor=#ffffff;imageAspect=0;aspect=fixed;image=https://cdn2.iconfinder.com/data/icons/brush-set-free/512/leaf_cleaning_stick-128.png" parent="h8FtxE-7rcOeHejVIQH1-11" vertex="1">
          <mxGeometry x="370" y="156" width="108" height="108" as="geometry" />
        </mxCell>
        <mxCell id="h8FtxE-7rcOeHejVIQH1-16" value="" style="shape=image;html=1;verticalAlign=top;verticalLabelPosition=bottom;labelBackgroundColor=#ffffff;imageAspect=0;aspect=fixed;image=https://cdn2.iconfinder.com/data/icons/brush-set-free/512/Cleaning_Brush-128.png;rotation=30;" parent="h8FtxE-7rcOeHejVIQH1-11" vertex="1">
          <mxGeometry x="239.68" y="62.96000000000001" width="60" height="60" as="geometry" />
        </mxCell>
        <mxCell id="h8FtxE-7rcOeHejVIQH1-18" value="" style="shape=umlActor;verticalLabelPosition=bottom;verticalAlign=top;html=1;outlineConnect=0;rotation=-65;" parent="h8FtxE-7rcOeHejVIQH1-11" vertex="1">
          <mxGeometry x="250" y="122.18" width="30" height="60" as="geometry" />
        </mxCell>
        <mxCell id="h8FtxE-7rcOeHejVIQH1-21" value="" style="shape=umlActor;verticalLabelPosition=bottom;verticalAlign=top;html=1;outlineConnect=0;" parent="h8FtxE-7rcOeHejVIQH1-11" vertex="1">
          <mxGeometry x="280" y="50" width="30" height="60" as="geometry" />
        </mxCell>
        <mxCell id="h8FtxE-7rcOeHejVIQH1-23" value="" style="shape=image;html=1;verticalAlign=top;verticalLabelPosition=bottom;labelBackgroundColor=#ffffff;imageAspect=0;aspect=fixed;image=https://cdn3.iconfinder.com/data/icons/pidginsmilies/poop.png" parent="h8FtxE-7rcOeHejVIQH1-11" vertex="1">
          <mxGeometry x="210" y="210" width="54" height="54" as="geometry" />
        </mxCell>
      </root>
    </mxGraphModel>
  </diagram>
</mxfile>
